<?xml version="1.0" standalone="no"?>
<!DOCTYPE svg PUBLIC "-//W3C//DTD SVG 1.1//EN" "http://www.w3.org/Graphics/SVG/1.1/DTD/svg11.dtd">
<svg version="1.1" xmlns="http://www.w3.org/2000/svg" viewBox="0 0 313.49868439077284 280.60201100467447" width="313.49868439077284" height="280.60201100467447"><!-- svg-source:excalidraw --><metadata></metadata><defs><style class="style-fonts">
      </style></defs><g transform="translate(242.00891351191672 247.64039303479018) rotate(0 30.055802514740037 -0.4426480719197059)" stroke="none"><path d="M0 -0.3 C1.11 -1.03, 4.32 -2.66, 6.68 -4.64 C9.03 -6.63, 11.13 -9.8, 14.11 -12.2 C17.1 -14.61, 21.68 -17.46, 24.59 -19.07 C27.5 -20.68, 28.41 -21.26, 31.57 -21.87 C34.74 -22.47, 40.61 -22.94, 43.57 -22.71 C46.53 -22.47, 47.89 -21.35, 49.34 -20.47 C50.78 -19.58, 51.13 -18.16, 52.22 -17.39 C53.31 -16.62, 54.4 -18.41, 55.87 -15.85 C57.33 -13.28, 60.62 -6.16, 61.03 -1.98 C61.43 2.19, 59.66 5.95, 58.29 9.22 C56.93 12.49, 55.11 15.61, 52.83 17.62 C50.55 19.63, 46.91 20.56, 44.63 21.26 C42.35 21.96, 41.42 21.77, 39.17 21.82 C36.91 21.87, 33.57 22.01, 31.12 21.54 C28.66 21.07, 26.23 19.98, 24.44 19.02 C22.64 18.06, 22.36 16.9, 20.34 15.8 C18.31 14.7, 15.15 14.47, 12.29 12.44 C9.43 10.41, 5.38 5.44, 3.18 3.62 C0.98 1.8, -0.23 1.87, -0.92 1.52" stroke="none" stroke-width="0" fill="#eebefa" fill-rule="evenodd"></path><path fill="transparent" d="M -0.89,-2.61 Q -0.89,-2.61 -0.38,-2.86 0.11,-3.10 1.03,-4.16 1.94,-5.21 3.07,-6.02 4.21,-6.83 5.01,-7.80 5.81,-8.77 6.82,-9.90 7.83,-11.04 8.72,-11.82 9.60,-12.59 10.60,-13.19 11.60,-13.79 10.72,-12.76 9.84,-11.73 10.37,-12.72 10.90,-13.72 11.80,-14.53 12.69,-15.34 13.61,-15.96 14.52,-16.59 15.56,-17.26 16.61,-17.93 17.59,-18.64 18.57,-19.35 19.72,-20.11 20.86,-20.87 22.47,-21.71 24.08,-22.54 25.19,-22.69 26.31,-22.83 27.36,-23.67 28.42,-24.50 29.94,-25.00 31.47,-25.50 32.58,-25.48 33.69,-25.47 34.79,-25.40 35.90,-25.33 36.97,-25.76 38.03,-26.19 39.20,-26.29 40.37,-26.38 41.49,-26.39 42.60,-26.40 43.87,-26.21 45.15,-26.02 46.32,-25.32 47.49,-24.62 46.41,-25.37 45.33,-26.12 46.47,-25.54 47.62,-24.95 48.80,-24.48 49.98,-24.02 51.09,-23.56 52.20,-23.11 53.00,-22.32 53.80,-21.53 54.47,-20.53 55.14,-19.52 56.66,-18.98 58.18,-18.45 57.12,-19.15 56.06,-19.86 57.25,-19.18 58.44,-18.50 59.15,-17.48 59.86,-16.46 60.35,-15.14 60.85,-13.81 61.18,-12.64 61.51,-11.47 62.05,-10.23 62.60,-8.99 62.83,-7.83 63.07,-6.68 63.72,-5.39 64.37,-4.10 64.63,-3.03 64.88,-1.96 64.48,-0.36 64.08,1.23 63.57,2.30 63.06,3.38 62.76,4.70 62.46,6.01 62.40,7.08 62.33,8.15 61.94,9.71 61.56,11.27 61.05,12.24 60.55,13.20 59.94,14.17 59.34,15.13 58.28,15.90 57.22,16.68 56.66,18.12 56.11,19.57 54.93,20.46 53.75,21.35 52.47,21.87 51.19,22.39 50.14,22.58 49.08,22.76 47.78,23.67 46.48,24.57 45.42,24.91 44.36,25.25 43.26,25.28 42.16,25.32 41.09,25.45 40.02,25.57 38.94,25.66 37.86,25.75 36.66,25.74 35.46,25.73 34.32,25.72 33.18,25.70 31.76,25.39 30.34,25.07 28.86,24.02 27.38,22.97 28.56,23.85 29.73,24.73 28.40,24.28 27.07,23.84 26.02,23.52 24.97,23.19 23.42,22.51 21.87,21.82 20.81,20.99 19.75,20.17 18.85,19.53 17.95,18.89 16.78,18.53 15.61,18.18 14.19,17.58 12.78,16.98 11.75,16.46 10.72,15.95 9.74,14.82 8.75,13.70 9.56,14.61 10.36,15.52 9.39,14.53 8.42,13.55 7.39,12.71 6.35,11.88 5.41,11.13 4.47,10.38 3.50,9.56 2.53,8.73 1.76,7.97 0.99,7.20 -0.53,6.23 -2.07,5.26 -2.63,4.97 -3.20,4.68 -3.64,4.22 -4.08,3.76 -4.35,3.19 -4.62,2.62 -4.69,1.99 -4.77,1.36 -4.64,0.73 -4.51,0.11 -4.18,-0.42 -3.86,-0.97 -3.38,-1.39 -2.90,-1.80 -2.31,-2.04 -1.73,-2.28 -1.09,-2.32 -0.46,-2.36 0.14,-2.20 0.76,-2.03 1.28,-1.68 1.81,-1.33 2.20,-0.83 2.59,-0.33 2.80,0.26 3.01,0.86 3.01,1.50 3.02,2.13 2.82,2.74 2.62,3.34 2.24,3.85 1.86,4.36 1.34,4.72 0.82,5.08 0.21,5.25 -0.39,5.43 -1.02,5.40 -1.66,5.37 -2.25,5.14 -2.84,4.91 -3.33,4.51 -3.82,4.10 -4.15,3.56 -4.48,3.02 -4.62,2.40 -4.76,1.78 -4.70,1.15 -4.64,0.52 -4.38,-0.05 -4.12,-0.63 -3.68,-1.09 -3.25,-1.56 -2.69,-1.86 -2.13,-2.16 -1.51,-2.27 -0.88,-2.38 -0.26,-2.28 0.36,-2.19 0.36,-2.19 0.36,-2.19 2.15,-1.30 3.94,-0.41 5.00,0.49 6.06,1.40 6.84,2.42 7.63,3.44 6.76,2.59 5.89,1.74 6.89,2.65 7.89,3.57 6.95,2.76 6.02,1.96 7.10,2.59 8.18,3.22 9.01,3.99 9.84,4.77 10.66,5.60 11.47,6.44 12.41,7.30 13.35,8.17 12.17,7.49 10.98,6.80 12.33,7.58 13.67,8.36 14.50,9.24 15.34,10.11 14.57,9.36 13.81,8.61 15.16,9.43 16.52,10.24 17.94,10.75 19.37,11.26 20.55,11.73 21.73,12.20 22.91,13.07 24.09,13.94 24.90,14.65 25.71,15.36 26.83,15.71 27.95,16.05 29.37,16.53 30.80,17.00 32.00,17.46 33.20,17.93 34.33,17.92 35.46,17.91 36.96,18.01 38.45,18.11 40.00,17.79 41.55,17.47 42.61,17.34 43.67,17.22 44.81,16.62 45.94,16.02 47.04,15.58 48.15,15.14 49.19,14.67 50.23,14.20 50.84,13.31 51.44,12.42 52.46,11.28 53.48,10.15 54.02,9.08 54.56,8.02 54.64,6.93 54.73,5.84 54.89,4.64 55.06,3.44 55.46,2.01 55.87,0.58 56.49,-0.36 57.10,-1.30 56.53,-2.33 55.95,-3.35 55.70,-4.73 55.46,-6.10 54.85,-7.41 54.24,-8.72 53.96,-9.89 53.68,-11.07 53.28,-12.19 52.89,-13.31 53.87,-12.72 54.85,-12.13 53.53,-12.91 52.21,-13.69 53.29,-13.06 54.36,-12.43 53.26,-12.80 52.15,-13.17 51.24,-13.74 50.33,-14.31 49.47,-15.52 48.61,-16.73 47.52,-17.17 46.43,-17.62 45.38,-18.04 44.33,-18.46 43.02,-19.15 41.72,-19.84 43.31,-19.46 44.89,-19.09 43.25,-18.91 41.60,-18.73 40.49,-18.88 39.37,-19.04 38.39,-18.59 37.40,-18.15 36.03,-18.06 34.65,-17.98 33.52,-18.08 32.39,-18.18 31.07,-17.53 29.75,-16.88 28.79,-16.35 27.84,-15.82 26.77,-15.64 25.70,-15.47 24.76,-14.93 23.82,-14.39 22.62,-13.48 21.42,-12.56 20.01,-11.65 18.59,-10.74 17.55,-10.49 16.51,-10.25 15.80,-9.26 15.08,-8.27 13.83,-7.41 12.57,-6.56 11.62,-5.53 10.68,-4.51 9.69,-3.56 8.70,-2.61 7.55,-2.07 6.41,-1.52 5.35,-0.54 4.29,0.44 3.12,1.06 1.96,1.69 1.42,1.85 0.88,2.00 0.59,2.08 0.30,2.15 0.00,2.15 -0.29,2.15 -0.58,2.08 -0.87,2.01 -1.13,1.87 -1.40,1.74 -1.62,1.54 -1.85,1.34 -2.02,1.10 -2.19,0.85 -2.30,0.57 -2.40,0.30 -2.44,0.00 -2.48,-0.29 -2.44,-0.58 -2.41,-0.88 -2.30,-1.16 -2.20,-1.44 -2.03,-1.69 -1.86,-1.93 -1.64,-2.13 -1.42,-2.33 -1.15,-2.47 -0.89,-2.61 -0.89,-2.61 L -0.89,-2.61 Z"></path></g><g transform="translate(242.4713997081384 246.47227378665366) rotate(0 30.055802514740037 -0.4426480719196775)" stroke="none"><path d="M-0.15 -0.13 C-0.15 -0.13, -0.15 -0.13, -0.15 -0.13 M-0.15 -0.13 C-0.15 -0.13, -0.15 -0.13, -0.15 -0.13 M2.21 3.25 C6.5 -1.68, 10.78 -6.61, 17.3 -14.11 M2.21 3.25 C7.49 -2.83, 12.77 -8.9, 17.3 -14.11 M5.23 5.87 C12.71 -2.74, 20.19 -11.34, 26.88 -19.03 M5.23 5.87 C10.96 -0.73, 16.7 -7.32, 26.88 -19.03 M8.25 8.49 C16.97 -1.54, 25.7 -11.58, 34.49 -21.69 M8.25 8.49 C14.99 0.74, 21.74 -7.02, 34.49 -21.69 M11.27 11.12 C22.71 -2.05, 34.16 -15.22, 40.79 -22.84 M11.27 11.12 C19.88 1.21, 28.49 -8.69, 40.79 -22.84 M14.29 13.74 C25.18 1.21, 36.07 -11.32, 45.12 -21.73 M14.29 13.74 C25.21 1.18, 36.13 -11.39, 45.12 -21.73 M18.62 14.86 C25.63 6.79, 32.64 -1.27, 48.8 -19.86 M18.62 14.86 C30.31 1.41, 41.99 -12.03, 48.8 -19.86 M22.29 16.73 C29.72 8.18, 37.15 -0.37, 51.81 -17.23 M22.29 16.73 C29.04 8.96, 35.79 1.2, 51.81 -17.23 M25.31 19.35 C35.33 7.82, 45.35 -3.7, 56.15 -16.12 M25.31 19.35 C36.04 7, 46.78 -5.34, 56.15 -16.12 M28.99 21.22 C38.05 10.79, 47.12 0.35, 57.85 -11.99 M28.99 21.22 C40.12 8.41, 51.26 -4.41, 57.85 -11.99 M33.97 21.58 C41.47 12.96, 48.96 4.34, 59.56 -7.85 M33.97 21.58 C41.37 13.07, 48.77 4.55, 59.56 -7.85 M38.96 21.94 C43.61 16.59, 48.26 11.25, 61.27 -3.72 M38.96 21.94 C44.55 15.51, 50.14 9.08, 61.27 -3.72 M44.6 21.55 C50.02 15.31, 55.44 9.07, 60.35 3.43 M44.6 21.55 C48.45 17.12, 52.31 12.69, 60.35 3.43" stroke="#be4bdb" stroke-width="0.5" fill="none"></path><path fill="transparent" d="M -0.89,-2.61 Q -0.89,-2.61 -0.38,-2.86 0.11,-3.10 1.03,-4.16 1.94,-5.21 3.07,-6.02 4.21,-6.83 5.01,-7.80 5.81,-8.77 6.82,-9.90 7.83,-11.04 8.72,-11.82 9.60,-12.59 10.60,-13.19 11.60,-13.79 10.72,-12.76 9.84,-11.73 10.37,-12.72 10.90,-13.72 11.80,-14.53 12.69,-15.34 13.61,-15.96 14.52,-16.59 15.56,-17.26 16.61,-17.93 17.59,-18.64 18.57,-19.35 19.72,-20.11 20.86,-20.87 22.47,-21.71 24.08,-22.54 25.19,-22.69 26.31,-22.83 27.36,-23.67 28.42,-24.50 29.94,-25.00 31.47,-25.50 32.58,-25.48 33.69,-25.47 34.79,-25.40 35.90,-25.33 36.97,-25.76 38.03,-26.19 39.20,-26.29 40.37,-26.38 41.49,-26.39 42.60,-26.40 43.87,-26.21 45.15,-26.02 46.32,-25.32 47.49,-24.62 46.41,-25.37 45.33,-26.12 46.47,-25.54 47.62,-24.95 48.80,-24.48 49.98,-24.02 51.09,-23.56 52.20,-23.11 53.00,-22.32 53.80,-21.53 54.47,-20.53 55.14,-19.52 56.66,-18.98 58.18,-18.45 57.12,-19.15 56.06,-19.86 57.25,-19.18 58.44,-18.50 59.15,-17.48 59.86,-16.46 60.35,-15.14 60.85,-13.81 61.18,-12.64 61.51,-11.47 62.05,-10.23 62.60,-8.99 62.83,-7.83 63.07,-6.68 63.72,-5.39 64.37,-4.10 64.63,-3.03 64.88,-1.96 64.48,-0.36 64.08,1.23 63.57,2.30 63.06,3.38 62.76,4.70 62.46,6.01 62.40,7.08 62.33,8.15 61.94,9.71 61.56,11.27 61.05,12.24 60.55,13.20 59.94,14.17 59.34,15.13 58.28,15.90 57.22,16.68 56.66,18.12 56.11,19.57 54.93,20.46 53.75,21.35 52.47,21.87 51.19,22.39 50.14,22.58 49.08,22.76 47.78,23.67 46.48,24.57 45.42,24.91 44.36,25.25 43.26,25.28 42.16,25.32 41.09,25.45 40.02,25.57 38.94,25.66 37.86,25.75 36.66,25.74 35.46,25.73 34.32,25.72 33.18,25.70 31.76,25.39 30.34,25.07 28.86,24.02 27.38,22.97 28.56,23.85 29.73,24.73 28.40,24.28 27.07,23.84 26.02,23.52 24.97,23.19 23.42,22.51 21.87,21.82 20.81,20.99 19.75,20.17 18.85,19.53 17.95,18.89 16.78,18.53 15.61,18.18 14.19,17.58 12.78,16.98 11.75,16.46 10.72,15.95 9.74,14.82 8.75,13.70 9.56,14.61 10.36,15.52 9.39,14.53 8.42,13.55 7.39,12.71 6.35,11.88 5.41,11.13 4.47,10.38 3.50,9.56 2.53,8.73 1.76,7.97 0.99,7.20 -0.56,6.22 -2.13,5.24 -2.69,4.95 -3.26,4.66 -3.70,4.20 -4.14,3.74 -4.41,3.17 -4.68,2.60 -4.76,1.97 -4.83,1.34 -4.70,0.71 -4.57,0.09 -4.25,-0.44 -3.92,-0.99 -3.44,-1.41 -2.96,-1.82 -2.38,-2.06 -1.79,-2.30 -1.16,-2.34 -0.52,-2.38 0.08,-2.22 0.69,-2.05 1.22,-1.70 1.75,-1.35 2.14,-0.85 2.53,-0.35 2.74,0.24 2.95,0.84 2.95,1.48 2.96,2.11 2.76,2.72 2.56,3.32 2.18,3.83 1.80,4.34 1.28,4.70 0.76,5.06 0.15,5.23 -0.45,5.41 -1.09,5.38 -1.72,5.35 -2.31,5.12 -2.90,4.89 -3.39,4.49 -3.88,4.08 -4.21,3.54 -4.54,3.00 -4.68,2.38 -4.83,1.76 -4.76,1.13 -4.70,0.50 -4.44,-0.07 -4.18,-0.65 -3.75,-1.12 -3.31,-1.58 -2.75,-1.88 -2.20,-2.18 -1.57,-2.29 -0.95,-2.40 -0.32,-2.30 0.30,-2.21 0.30,-2.21 0.30,-2.21 2.12,-1.31 3.94,-0.41 5.00,0.49 6.06,1.40 6.84,2.42 7.63,3.44 6.76,2.59 5.89,1.74 6.89,2.65 7.89,3.57 6.95,2.76 6.02,1.96 7.10,2.59 8.18,3.22 9.01,3.99 9.84,4.77 10.66,5.60 11.47,6.44 12.41,7.30 13.35,8.17 12.17,7.49 10.98,6.80 12.33,7.58 13.67,8.36 14.50,9.24 15.34,10.11 14.57,9.36 13.81,8.61 15.16,9.43 16.52,10.24 17.94,10.75 19.37,11.26 20.55,11.73 21.73,12.20 22.91,13.07 24.09,13.94 24.90,14.65 25.71,15.36 26.83,15.71 27.95,16.05 29.37,16.53 30.80,17.00 32.00,17.46 33.20,17.93 34.33,17.92 35.46,17.91 36.96,18.01 38.45,18.11 40.00,17.79 41.55,17.47 42.61,17.34 43.67,17.22 44.81,16.62 45.94,16.02 47.04,15.58 48.15,15.14 49.19,14.67 50.23,14.20 50.84,13.31 51.44,12.42 52.46,11.28 53.48,10.15 54.02,9.08 54.56,8.02 54.64,6.93 54.73,5.84 54.89,4.64 55.06,3.44 55.46,2.01 55.87,0.58 56.49,-0.36 57.10,-1.30 56.53,-2.33 55.95,-3.35 55.70,-4.73 55.46,-6.10 54.85,-7.41 54.24,-8.72 53.96,-9.89 53.68,-11.07 53.28,-12.19 52.89,-13.31 53.87,-12.72 54.85,-12.13 53.53,-12.91 52.21,-13.69 53.29,-13.06 54.36,-12.43 53.26,-12.80 52.15,-13.17 51.24,-13.74 50.33,-14.31 49.47,-15.52 48.61,-16.73 47.52,-17.17 46.43,-17.62 45.38,-18.04 44.33,-18.46 43.02,-19.15 41.72,-19.84 43.31,-19.46 44.89,-19.09 43.25,-18.91 41.60,-18.73 40.49,-18.88 39.37,-19.04 38.39,-18.59 37.40,-18.15 36.03,-18.06 34.65,-17.98 33.52,-18.08 32.39,-18.18 31.07,-17.53 29.75,-16.88 28.79,-16.35 27.84,-15.82 26.77,-15.64 25.70,-15.47 24.76,-14.93 23.82,-14.39 22.62,-13.48 21.42,-12.56 20.01,-11.65 18.59,-10.74 17.55,-10.49 16.51,-10.25 15.80,-9.26 15.08,-8.27 13.83,-7.41 12.57,-6.56 11.62,-5.53 10.68,-4.51 9.69,-3.56 8.70,-2.61 7.55,-2.07 6.41,-1.52 5.35,-0.54 4.29,0.44 3.12,1.06 1.96,1.69 1.42,1.85 0.88,2.00 0.59,2.08 0.30,2.15 0.00,2.15 -0.29,2.15 -0.58,2.08 -0.87,2.01 -1.13,1.87 -1.40,1.74 -1.62,1.54 -1.85,1.34 -2.02,1.10 -2.19,0.85 -2.30,0.57 -2.40,0.30 -2.44,0.00 -2.48,-0.29 -2.44,-0.58 -2.41,-0.88 -2.30,-1.16 -2.20,-1.44 -2.03,-1.69 -1.86,-1.93 -1.64,-2.13 -1.42,-2.33 -1.15,-2.47 -0.89,-2.61 -0.89,-2.61 L -0.89,-2.61 Z"></path></g><g transform="translate(240.78575771808403 251.03438485734972) rotate(0 -30.37801703390744 -3.9377277289669905)" stroke="none"><path d="M-3.13 -2.31 C-3.54 -2.91, -3.1 -3.86, -5.57 -5.87 C-8.03 -7.89, -15.38 -12.43, -17.93 -14.39 C-20.48 -16.35, -19 -16.24, -20.89 -17.64 C-22.78 -19.03, -27.13 -21.69, -29.25 -22.75 C-31.36 -23.8, -30.41 -23.93, -33.6 -23.99 C-36.79 -24.04, -44.68 -24.24, -48.4 -23.06 C-52.11 -21.87, -54.35 -19.08, -55.89 -16.86 C-57.42 -14.65, -57.39 -12.68, -57.63 -9.74 C-57.86 -6.8, -57.97 -2.23, -57.28 0.78 C-56.58 3.8, -54.87 6.25, -53.45 8.37 C-52.03 10.49, -50.69 12.19, -48.75 13.48 C-46.8 14.77, -44.86 15.65, -41.78 16.11 C-38.71 16.57, -32.96 16.52, -30.29 16.26 C-27.62 16.01, -29.65 16.91, -25.76 14.56 C-21.88 12.21, -10.73 4.99, -6.96 2.18 C-3.19 -0.64, -3.77 -1.56, -3.13 -2.31" stroke="none" stroke-width="0" fill="#ebfbee" fill-rule="evenodd"></path><path fill="transparent" d="M -5.27,-0.84 Q -5.27,-0.84 -5.98,-1.85 -6.69,-2.87 -7.60,-3.53 -8.50,-4.20 -9.66,-4.83 -10.82,-5.46 -11.84,-6.22 -12.87,-6.98 -13.69,-8.08 -14.52,-9.18 -15.91,-9.62 -17.30,-10.07 -18.42,-10.78 -19.54,-11.49 -20.53,-12.31 -21.52,-13.13 -22.55,-14.34 -23.59,-15.54 -22.68,-14.79 -21.77,-14.04 -22.91,-14.76 -24.05,-15.48 -25.32,-16.22 -26.59,-16.96 -27.62,-17.47 -28.66,-17.97 -29.63,-18.56 -30.61,-19.14 -31.86,-19.62 -33.12,-20.09 -34.47,-20.19 -35.83,-20.30 -36.90,-20.30 -37.98,-20.31 -39.04,-20.30 -40.11,-20.30 -41.40,-20.23 -42.69,-20.17 -43.89,-20.09 -45.09,-20.02 -46.11,-19.59 -47.12,-19.17 -47.96,-18.42 -48.80,-17.67 -49.92,-16.82 -51.05,-15.98 -52.31,-15.31 -53.58,-14.63 -52.59,-15.29 -51.60,-15.95 -52.29,-15.09 -52.98,-14.24 -53.44,-12.33 -53.90,-10.42 -53.96,-9.30 -54.03,-8.17 -53.86,-7.06 -53.69,-5.94 -53.61,-4.59 -53.53,-3.24 -53.44,-2.17 -53.35,-1.09 -53.11,0.08 -52.86,1.26 -52.06,2.41 -51.27,3.55 -50.82,4.52 -50.38,5.49 -49.84,6.46 -49.30,7.43 -48.46,8.43 -47.63,9.43 -48.48,8.54 -49.34,7.65 -48.46,8.30 -47.58,8.94 -46.64,9.99 -45.69,11.03 -44.45,11.33 -43.21,11.63 -41.62,12.29 -40.03,12.95 -39.04,12.56 -38.05,12.16 -36.94,12.16 -35.82,12.16 -34.69,12.16 -33.55,12.16 -32.22,12.34 -30.89,12.53 -29.86,12.02 -28.83,11.52 -27.86,11.00 -26.89,10.49 -25.72,9.83 -24.55,9.17 -23.72,8.46 -22.89,7.76 -22.01,7.01 -21.14,6.26 -19.76,5.46 -18.38,4.65 -17.25,4.01 -16.12,3.37 -15.08,2.83 -14.04,2.29 -13.02,1.64 -12.00,0.99 -10.98,0.21 -9.95,-0.56 -9.07,-1.32 -8.19,-2.08 -6.90,-3.68 -5.60,-5.27 -5.06,-5.59 -4.53,-5.91 -3.91,-6.04 -3.30,-6.17 -2.68,-6.09 -2.06,-6.02 -1.50,-5.75 -0.93,-5.49 -0.48,-5.05 -0.03,-4.62 0.25,-4.07 0.54,-3.51 0.63,-2.89 0.73,-2.28 0.62,-1.66 0.52,-1.04 0.22,-0.49 -0.07,0.05 -0.53,0.47 -0.98,0.90 -1.55,1.16 -2.12,1.41 -2.74,1.48 -3.37,1.54 -3.97,1.40 -4.58,1.26 -5.12,0.93 -5.65,0.61 -6.05,0.13 -6.45,-0.34 -6.68,-0.92 -6.90,-1.51 -6.93,-2.13 -6.96,-2.76 -6.79,-3.36 -6.62,-3.96 -6.26,-4.47 -5.91,-4.99 -5.41,-5.36 -4.91,-5.74 -4.31,-5.93 -3.72,-6.12 -3.09,-6.12 -2.47,-6.11 -1.88,-5.91 -1.29,-5.71 -0.79,-5.32 -0.30,-4.94 0.04,-4.42 0.38,-3.90 0.55,-3.30 0.71,-2.69 0.67,-2.07 0.63,-1.45 0.40,-0.87 0.16,-0.29 -0.24,0.17 -0.65,0.65 -0.65,0.65 -0.65,0.65 -1.02,1.04 -1.40,1.44 -2.32,2.59 -3.24,3.73 -4.58,4.93 -5.93,6.12 -6.89,6.68 -7.85,7.24 -9.07,8.11 -10.30,8.98 -11.51,9.71 -12.71,10.44 -14.24,11.09 -15.77,11.74 -16.54,12.57 -17.32,13.39 -18.32,14.11 -19.32,14.83 -20.30,15.49 -21.28,16.15 -22.33,16.87 -23.37,17.59 -24.69,18.24 -26.00,18.89 -27.49,19.42 -28.98,19.94 -30.10,20.07 -31.22,20.21 -32.39,20.13 -33.55,20.05 -34.69,20.05 -35.82,20.05 -36.94,20.05 -38.05,20.04 -39.19,20.05 -40.32,20.05 -41.54,19.89 -42.75,19.73 -43.78,19.47 -44.82,19.21 -46.21,18.82 -47.60,18.44 -48.58,17.90 -49.56,17.36 -50.57,16.72 -51.57,16.07 -52.64,14.86 -53.71,13.64 -54.48,12.62 -55.25,11.59 -56.32,10.17 -57.40,8.76 -57.68,7.70 -57.97,6.63 -58.83,5.17 -59.70,3.71 -60.45,1.70 -61.20,-0.31 -61.23,-1.42 -61.25,-2.52 -61.40,-4.23 -61.55,-5.94 -61.55,-7.09 -61.55,-8.23 -61.43,-9.36 -61.31,-10.48 -61.15,-11.59 -60.98,-12.71 -60.72,-13.80 -60.46,-14.89 -60.09,-16.24 -59.72,-17.60 -58.67,-19.02 -57.61,-20.44 -56.72,-21.20 -55.83,-21.95 -54.99,-22.66 -54.15,-23.37 -53.28,-24.09 -52.41,-24.81 -51.52,-25.43 -50.64,-26.04 -49.56,-26.57 -48.49,-27.10 -47.07,-27.40 -45.66,-27.69 -44.54,-27.74 -43.43,-27.80 -42.05,-27.89 -40.68,-27.98 -39.52,-27.97 -38.36,-27.96 -37.22,-27.95 -36.09,-27.94 -34.87,-27.85 -33.65,-27.77 -32.22,-27.49 -30.80,-27.21 -29.77,-26.81 -28.75,-26.42 -27.66,-25.95 -26.57,-25.48 -25.50,-24.80 -24.42,-24.12 -23.35,-23.51 -22.28,-22.90 -21.36,-22.04 -20.44,-21.18 -19.56,-20.49 -18.68,-19.79 -17.74,-18.87 -16.79,-17.95 -15.64,-17.09 -14.49,-16.22 -13.32,-15.38 -12.14,-14.53 -11.10,-13.72 -10.06,-12.90 -9.23,-11.81 -8.41,-10.71 -9.14,-11.53 -9.88,-12.34 -8.98,-11.64 -8.08,-10.94 -7.14,-10.17 -6.20,-9.41 -4.97,-8.45 -3.74,-7.50 -3.05,-6.67 -2.36,-5.84 -1.67,-4.81 -0.98,-3.78 -0.83,-3.50 -0.69,-3.22 -0.61,-2.92 -0.54,-2.61 -0.54,-2.30 -0.54,-1.98 -0.62,-1.68 -0.69,-1.37 -0.84,-1.10 -0.99,-0.82 -1.20,-0.59 -1.41,-0.35 -1.67,-0.18 -1.92,-0.00 -2.22,0.10 -2.51,0.21 -2.82,0.25 -3.14,0.29 -3.45,0.25 -3.76,0.21 -4.05,0.10 -4.34,-0.01 -4.60,-0.19 -4.86,-0.37 -5.07,-0.60 -5.27,-0.84 -5.27,-0.84 L -5.27,-0.84 Z"></path></g><g transform="translate(10 87.11939087063848) rotate(0 0.00004999999998744897 0.00004999999998744897)" stroke="none"><path fill="transparent" d="M 1.57,-1.57 Q 1.57,-1.57 1.77,-1.27 1.98,-0.98 2.09,-0.64 2.20,-0.29 2.19,0.05 2.18,0.41 2.05,0.75 1.93,1.09 1.70,1.37 1.48,1.65 1.18,1.84 0.87,2.04 0.52,2.12 0.18,2.21 -0.17,2.18 -0.53,2.15 -0.86,2.01 -1.19,1.87 -1.46,1.63 -1.73,1.39 -1.90,1.07 -2.08,0.76 -2.15,0.41 -2.21,0.05 -2.17,-0.29 -2.12,-0.65 -1.96,-0.97 -1.80,-1.29 -1.54,-1.54 -1.29,-1.80 -0.97,-1.96 -0.65,-2.12 -0.29,-2.17 0.06,-2.21 0.41,-2.15 0.76,-2.08 1.07,-1.90 1.39,-1.73 1.63,-1.46 1.87,-1.19 2.01,-0.86 2.15,-0.53 2.18,-0.17 2.21,0.18 2.12,0.52 2.03,0.87 1.84,1.18 1.65,1.48 1.37,1.70 1.09,1.93 0.75,2.05 0.41,2.18 0.05,2.19 -0.30,2.20 -0.64,2.09 -0.98,1.98 -1.27,1.77 -1.57,1.56 -1.57,1.57 -1.57,1.57 -1.73,1.35 -1.90,1.14 -2.01,0.90 -2.12,0.66 -2.16,0.39 -2.21,0.13 -2.20,-0.13 -2.18,-0.40 -2.10,-0.65 -2.02,-0.91 -1.88,-1.14 -1.74,-1.36 -1.55,-1.55 -1.36,-1.74 -1.14,-1.88 -0.91,-2.02 -0.65,-2.10 -0.40,-2.18 -0.13,-2.20 0.13,-2.21 0.39,-2.16 0.66,-2.12 0.90,-2.01 1.14,-1.90 1.35,-1.73 1.57,-1.57 1.57,-1.57 L 1.57,-1.57 Z"></path></g><g transform="translate(50.748676106904895 17.74560168033844) rotate(0 0.00004999999998744897 0.00004999999998744897)" stroke="none"><path fill="transparent" d="M 1.57,-1.57 Q 1.57,-1.57 1.77,-1.27 1.98,-0.98 2.09,-0.64 2.20,-0.29 2.19,0.05 2.18,0.41 2.05,0.75 1.93,1.09 1.70,1.37 1.48,1.65 1.18,1.84 0.87,2.04 0.52,2.12 0.18,2.21 -0.17,2.18 -0.53,2.15 -0.86,2.01 -1.19,1.87 -1.46,1.63 -1.73,1.39 -1.90,1.07 -2.08,0.76 -2.15,0.41 -2.21,0.05 -2.17,-0.29 -2.12,-0.65 -1.96,-0.97 -1.80,-1.29 -1.54,-1.54 -1.29,-1.80 -0.97,-1.96 -0.65,-2.12 -0.29,-2.17 0.06,-2.21 0.41,-2.15 0.76,-2.08 1.07,-1.90 1.39,-1.73 1.63,-1.46 1.87,-1.19 2.01,-0.86 2.15,-0.53 2.18,-0.17 2.21,0.18 2.12,0.52 2.03,0.87 1.84,1.18 1.65,1.48 1.37,1.70 1.09,1.93 0.75,2.05 0.41,2.18 0.05,2.19 -0.30,2.20 -0.64,2.09 -0.98,1.98 -1.27,1.77 -1.57,1.56 -1.57,1.57 -1.57,1.57 -1.73,1.35 -1.90,1.14 -2.01,0.90 -2.12,0.66 -2.16,0.39 -2.21,0.13 -2.20,-0.13 -2.18,-0.40 -2.10,-0.65 -2.02,-0.91 -1.88,-1.14 -1.74,-1.36 -1.55,-1.55 -1.36,-1.74 -1.14,-1.88 -0.91,-2.02 -0.65,-2.10 -0.40,-2.18 -0.13,-2.20 0.13,-2.21 0.39,-2.16 0.66,-2.12 0.90,-2.01 1.14,-1.90 1.35,-1.73 1.57,-1.57 1.57,-1.57 L 1.57,-1.57 Z"></path></g><g transform="translate(85.77234115907254 48.054544567268465) rotate(0 0.00004999999998744897 0.00004999999998744897)" stroke="none"><path fill="transparent" d="M 1.57,-1.57 Q 1.57,-1.57 1.77,-1.27 1.98,-0.98 2.09,-0.64 2.20,-0.29 2.19,0.05 2.18,0.41 2.05,0.75 1.93,1.09 1.70,1.37 1.48,1.65 1.18,1.84 0.87,2.04 0.52,2.12 0.18,2.21 -0.17,2.18 -0.53,2.15 -0.86,2.01 -1.19,1.87 -1.46,1.63 -1.73,1.39 -1.90,1.07 -2.08,0.76 -2.15,0.41 -2.21,0.05 -2.17,-0.29 -2.12,-0.65 -1.96,-0.97 -1.80,-1.29 -1.54,-1.54 -1.29,-1.80 -0.97,-1.96 -0.65,-2.12 -0.29,-2.17 0.06,-2.21 0.41,-2.15 0.76,-2.08 1.07,-1.90 1.39,-1.73 1.63,-1.46 1.87,-1.19 2.01,-0.86 2.15,-0.53 2.18,-0.17 2.21,0.18 2.12,0.52 2.03,0.87 1.84,1.18 1.65,1.48 1.37,1.70 1.09,1.93 0.75,2.05 0.41,2.18 0.05,2.19 -0.30,2.20 -0.64,2.09 -0.98,1.98 -1.27,1.77 -1.57,1.56 -1.57,1.57 -1.57,1.57 -1.73,1.35 -1.90,1.14 -2.01,0.90 -2.12,0.66 -2.16,0.39 -2.21,0.13 -2.20,-0.13 -2.18,-0.40 -2.10,-0.65 -2.02,-0.91 -1.88,-1.14 -1.74,-1.36 -1.55,-1.55 -1.36,-1.74 -1.14,-1.88 -0.91,-2.02 -0.65,-2.10 -0.40,-2.18 -0.13,-2.20 0.13,-2.21 0.39,-2.16 0.66,-2.12 0.90,-2.01 1.14,-1.90 1.35,-1.73 1.57,-1.57 1.57,-1.57 L 1.57,-1.57 Z"></path></g><g stroke-linecap="round"><g transform="translate(63.54576719784836 10) rotate(0 -10.102965974607855 42.600889533123535)"><path d="M0 0 C-6.01 14.2, -38.67 76.78, -36.03 85.2 C-33.4 93.62, 7.18 56.3, 15.83 50.51 M0 0 C-6.01 14.2, -38.67 76.78, -36.03 85.2 C-33.4 93.62, 7.18 56.3, 15.83 50.51" stroke="transparent" stroke-width="1" fill="none"></path></g></g><mask></mask><g transform="translate(240.35082354581732 250.53402358661242) rotate(0 -29.892925243754746 -4.990275135017129)" stroke="none"><path d="M-56.1 -16.96 C-56.1 -16.96, -56.1 -16.96, -56.1 -16.96 M-56.1 -16.96 C-56.1 -16.96, -56.1 -16.96, -56.1 -16.96 M-56.36 -10.57 C-52.8 -14.66, -49.25 -18.75, -45.21 -23.4 M-56.36 -10.57 C-52 -15.57, -47.65 -20.58, -45.21 -23.4 M-56.62 -4.17 C-52.8 -8.56, -48.99 -12.95, -39.56 -23.79 M-56.62 -4.17 C-50.56 -11.14, -44.49 -18.12, -39.56 -23.79 M-56.23 1.47 C-48.13 -7.84, -40.04 -17.15, -34.58 -23.43 M-56.23 1.47 C-50.96 -4.59, -45.68 -10.65, -34.58 -23.43 M-53.86 4.85 C-45.93 -4.27, -38 -13.4, -29.59 -23.07 M-53.86 4.85 C-48.3 -1.54, -42.74 -7.94, -29.59 -23.07 M-51.5 8.23 C-46.12 2.05, -40.74 -4.14, -25.91 -21.2 M-51.5 8.23 C-43.87 -0.55, -36.24 -9.33, -25.91 -21.2 M-49.14 11.61 C-42.18 3.6, -35.22 -4.4, -22.24 -19.33 M-49.14 11.61 C-40.77 1.99, -32.41 -7.63, -22.24 -19.33 M-44.81 12.73 C-35.79 2.35, -26.77 -8.02, -19.22 -16.71 M-44.81 12.73 C-38.07 4.98, -31.34 -2.77, -19.22 -16.71 M-41.13 14.6 C-32.32 4.46, -23.51 -5.67, -16.2 -14.08 M-41.13 14.6 C-32.4 4.56, -23.68 -5.48, -16.2 -14.08 M-35.49 14.2 C-29.89 7.76, -24.29 1.32, -12.53 -12.21 M-35.49 14.2 C-30.26 8.18, -25.03 2.17, -12.53 -12.21 M-30.5 14.56 C-24.98 8.2, -19.45 1.85, -9.51 -9.59 M-30.5 14.56 C-24.7 7.88, -18.89 1.21, -9.51 -9.59 M-22.23 11.15 C-18.19 6.5, -14.16 1.86, -5.83 -7.72 M-22.23 11.15 C-17.92 6.19, -13.61 1.23, -5.83 -7.72 M-10.69 3.96 C-7.85 0.7, -5.02 -2.56, -2.81 -5.1 M-10.69 3.96 C-9.1 2.13, -7.51 0.31, -2.81 -5.1" stroke="#b2f2bb" stroke-width="0.5" fill="none"></path><path fill="transparent" d="M -4.25,-1.90 Q -4.25,-1.90 -4.98,-2.86 -5.70,-3.82 -6.61,-4.44 -7.52,-5.06 -8.70,-5.65 -9.88,-6.25 -10.92,-6.96 -11.96,-7.68 -12.82,-8.77 -13.68,-9.86 -15.06,-10.22 -16.45,-10.59 -17.59,-11.26 -18.73,-11.93 -19.75,-12.72 -20.76,-13.51 -21.82,-14.67 -22.88,-15.82 -21.98,-15.10 -21.07,-14.37 -22.21,-15.05 -23.34,-15.73 -24.62,-16.42 -25.90,-17.11 -26.95,-17.59 -28.00,-18.07 -29.00,-18.62 -30.00,-19.18 -31.27,-19.63 -32.55,-20.08 -33.97,-20.19 -35.39,-20.30 -36.51,-20.30 -37.63,-20.31 -38.71,-20.30 -39.80,-20.30 -41.12,-20.23 -42.45,-20.17 -43.67,-20.10 -44.90,-20.03 -45.99,-19.61 -47.07,-19.20 -47.93,-18.48 -48.79,-17.77 -49.93,-16.97 -51.07,-16.17 -52.32,-15.55 -53.58,-14.92 -52.59,-15.55 -51.60,-16.17 -52.32,-15.35 -53.04,-14.52 -53.51,-12.71 -53.97,-10.91 -53.83,-9.84 -53.70,-8.78 -53.69,-7.60 -53.69,-6.42 -53.61,-5.14 -53.52,-3.87 -53.43,-2.73 -53.34,-1.60 -53.94,-2.54 -54.54,-3.48 -53.83,-2.30 -53.12,-1.12 -52.18,0.43 -51.24,1.98 -50.66,3.28 -50.08,4.58 -49.40,5.69 -48.71,6.80 -49.66,5.69 -50.60,4.57 -49.40,5.53 -48.21,6.48 -47.39,7.36 -46.56,8.24 -45.30,8.76 -44.04,9.27 -42.61,9.80 -41.19,10.33 -40.11,10.20 -39.02,10.06 -37.87,10.07 -36.72,10.07 -35.65,10.07 -34.57,10.06 -33.49,10.06 -32.41,10.06 -31.28,10.13 -30.14,10.21 -28.50,9.57 -26.85,8.94 -25.35,8.08 -23.86,7.21 -23.00,6.54 -22.14,5.87 -21.24,5.15 -20.34,4.43 -18.95,3.68 -17.56,2.92 -16.40,2.31 -15.24,1.70 -14.19,1.19 -13.14,0.68 -12.10,0.07 -11.06,-0.54 -10.01,-1.28 -8.96,-2.02 -8.07,-2.74 -7.17,-3.47 -6.13,-4.79 -5.08,-6.10 -4.53,-6.41 -3.98,-6.71 -3.35,-6.82 -2.73,-6.93 -2.11,-6.83 -1.49,-6.74 -0.93,-6.45 -0.37,-6.16 0.06,-5.71 0.50,-5.25 0.77,-4.68 1.04,-4.11 1.12,-3.49 1.20,-2.86 1.07,-2.24 0.94,-1.63 0.62,-1.08 0.30,-0.54 -0.17,-0.13 -0.64,0.28 -1.22,0.52 -1.81,0.76 -2.44,0.80 -3.07,0.84 -3.68,0.68 -4.29,0.52 -4.81,0.17 -5.34,-0.17 -5.72,-0.67 -6.11,-1.16 -6.32,-1.76 -6.53,-2.35 -6.54,-2.99 -6.54,-3.62 -6.35,-4.22 -6.15,-4.82 -5.78,-5.32 -5.40,-5.83 -4.88,-6.19 -4.37,-6.55 -3.76,-6.72 -3.15,-6.90 -2.52,-6.87 -1.89,-6.84 -1.31,-6.62 -0.72,-6.39 -0.23,-5.99 0.24,-5.59 0.57,-5.05 0.91,-4.51 1.05,-3.90 1.19,-3.28 1.13,-2.66 1.07,-2.03 0.81,-1.45 0.55,-0.88 0.12,-0.41 -0.30,0.04 -0.30,0.04 -0.29,0.04 -1.35,1.27 -2.41,2.50 -3.78,3.64 -5.15,4.79 -6.13,5.31 -7.10,5.83 -8.35,6.66 -9.60,7.49 -10.83,8.18 -12.06,8.87 -13.61,9.48 -15.15,10.09 -15.95,10.88 -16.75,11.68 -17.76,12.36 -18.78,13.04 -19.78,13.66 -20.78,14.29 -21.85,14.97 -22.91,15.65 -24.25,16.27 -25.58,16.89 -27.07,17.38 -28.56,17.86 -29.80,17.98 -31.05,18.10 -32.17,18.03 -33.30,17.95 -34.37,17.95 -35.44,17.95 -36.57,17.95 -37.70,17.95 -38.86,17.95 -40.02,17.95 -41.21,17.81 -42.41,17.67 -43.48,17.41 -44.55,17.16 -45.92,16.80 -47.29,16.45 -48.30,15.94 -49.31,15.43 -50.31,14.82 -51.32,14.21 -52.14,13.07 -52.97,11.93 -54.02,11.38 -55.07,10.84 -55.79,9.67 -56.52,8.50 -57.18,6.89 -57.83,5.27 -58.85,4.10 -59.86,2.93 -60.30,1.78 -60.74,0.64 -60.16,1.57 -59.59,2.50 -60.39,0.56 -61.20,-1.37 -61.21,-2.44 -61.22,-3.50 -61.39,-4.96 -61.55,-6.42 -61.55,-7.60 -61.55,-8.79 -61.50,-9.94 -61.45,-11.09 -61.14,-12.13 -60.84,-13.17 -60.64,-14.29 -60.44,-15.41 -60.05,-16.74 -59.66,-18.08 -58.58,-19.46 -57.50,-20.84 -56.58,-21.57 -55.65,-22.30 -54.80,-22.97 -53.94,-23.65 -53.06,-24.33 -52.17,-25.01 -51.27,-25.60 -50.36,-26.18 -49.29,-26.67 -48.22,-27.16 -46.82,-27.44 -45.42,-27.71 -44.26,-27.76 -43.10,-27.81 -41.74,-27.90 -40.38,-27.98 -39.19,-27.97 -38.01,-27.96 -36.87,-27.95 -35.72,-27.94 -34.48,-27.86 -33.24,-27.77 -31.82,-27.51 -30.40,-27.25 -29.36,-26.88 -28.32,-26.51 -27.23,-26.07 -26.15,-25.63 -25.06,-24.99 -23.97,-24.35 -22.88,-23.77 -21.78,-23.19 -20.81,-22.36 -19.84,-21.53 -18.96,-20.88 -18.09,-20.23 -17.13,-19.35 -16.18,-18.48 -15.01,-17.66 -13.84,-16.84 -12.65,-16.04 -11.46,-15.24 -10.39,-14.46 -9.33,-13.68 -8.47,-12.60 -7.60,-11.51 -8.37,-12.33 -9.13,-13.14 -8.22,-12.48 -7.31,-11.82 -6.35,-11.09 -5.38,-10.36 -4.13,-9.45 -2.87,-8.54 -2.16,-7.74 -1.46,-6.95 -0.76,-5.97 -0.06,-4.99 0.09,-4.71 0.24,-4.44 0.33,-4.14 0.41,-3.84 0.42,-3.52 0.43,-3.21 0.36,-2.90 0.30,-2.59 0.16,-2.31 0.02,-2.03 -0.17,-1.79 -0.37,-1.55 -0.62,-1.36 -0.88,-1.17 -1.17,-1.05 -1.46,-0.93 -1.77,-0.89 -2.08,-0.84 -2.39,-0.87 -2.70,-0.90 -3.00,-1.00 -3.30,-1.10 -3.56,-1.27 -3.82,-1.44 -4.04,-1.67 -4.25,-1.90 -4.25,-1.90 L -4.25,-1.90 Z"></path></g><g stroke-linecap="round"><g transform="translate(255.58136537244502 259.5374263334382) rotate(0 -13.767044640738106 -12.825621894215516)"><path d="M-0.31 0.52 C3.87 1.61, 18.56 7.03, 25.48 6.93 C32.41 6.84, 38.45 4.79, 41.24 -0.05 C44.04 -4.89, 46.22 -17.14, 42.26 -22.1 C38.3 -27.07, 31.15 -34.58, 17.48 -29.84 C3.82 -25.11, -25.14 0.81, -39.75 6.29 C-54.35 11.78, -64.66 8.54, -70.13 3.06 C-75.6 -2.42, -76.53 -20.69, -72.56 -26.59 C-68.59 -32.49, -54.91 -34.36, -46.32 -32.34 C-37.72 -30.32, -24.92 -17.44, -21 -14.47 C-17.07 -11.49, -18.96 -11.78, -22.77 -14.49 C-26.58 -17.2, -35.84 -28.63, -43.86 -30.74 C-51.88 -32.85, -65.59 -31.04, -70.9 -27.16 C-76.2 -23.27, -78.15 -12.98, -75.72 -7.44 C-73.28 -1.89, -63.3 4.88, -56.28 6.11 C-49.25 7.34, -44.87 5.79, -33.57 -0.08 C-22.26 -5.94, -1.07 -23.97, 11.54 -29.08 C24.14 -34.2, 36.28 -34.33, 42.05 -30.78 C47.82 -27.22, 47.13 -14.04, 46.17 -7.78 C45.22 -1.52, 40.07 4.44, 36.32 6.8 C32.57 9.16, 30.48 7.67, 23.68 6.39 C16.89 5.1, 3.11 2.54, -4.46 -0.9 C-12.04 -4.35, -21.31 -14.09, -21.79 -14.31 C-22.26 -14.53, -9.51 -3.76, -7.33 -2.23 M-3.92 -1.66 C0 -0.33, 17.04 9.74, 24.12 9.3 C31.2 8.87, 35.29 1.78, 38.56 -4.27 C41.82 -10.32, 47.62 -23, 43.73 -26.99 C39.84 -30.98, 29.76 -33.37, 15.22 -28.2 C0.67 -23.03, -29.55 -0.82, -43.54 4.03 C-57.52 8.88, -63.42 6.06, -68.7 0.91 C-73.98 -4.25, -78.28 -21.04, -75.21 -26.9 C-72.14 -32.75, -59.7 -36.16, -50.27 -34.21 C-40.84 -32.26, -23.15 -17.53, -18.63 -15.18 C-14.11 -12.82, -18.62 -17.47, -23.15 -20.1 C-27.67 -22.73, -37.72 -29.56, -45.78 -30.96 C-53.85 -32.36, -67.5 -32.24, -71.54 -28.49 C-75.58 -24.73, -72.85 -13.87, -70.03 -8.42 C-67.21 -2.96, -61.06 2.36, -54.63 4.23 C-48.19 6.1, -43.2 9.29, -31.43 2.8 C-19.66 -3.68, 4.03 -29.1, 15.99 -34.67 C27.94 -40.24, 35.77 -35.35, 40.29 -30.63 C44.81 -25.9, 43.71 -11.92, 43.1 -6.31 C42.48 -0.7, 40.35 0.18, 36.59 3.05 C32.84 5.92, 27.33 12.1, 20.58 10.91 C13.82 9.72, 3.34 0.28, -3.94 -4.09 C-11.22 -8.47, -23.14 -15.33, -23.12 -15.32 C-23.09 -15.31, -6.66 -5.64, -3.79 -4.03" stroke="#1e1e1e" stroke-width="2" fill="none"></path></g></g><mask></mask></svg>